<?xml version="1.0" ?><!DOCTYPE svg  PUBLIC '-//W3C//DTD SVG 1.1//EN'  'http://www.w3.org/Graphics/SVG/1.1/DTD/svg11.dtd'><svg enable-background="new 0 0 32 32" height="32px" id="Layer_1" version="1.1" viewBox="0 0 32 32" width="32px" xml:space="preserve" xmlns="http://www.w3.org/2000/svg" xmlns:xlink="http://www.w3.org/1999/xlink"><path d="M18.707,12.282C20.372,11.336,21.5,9.549,21.5,7.5C21.5,4.467,19.033,2,16,2s-5.5,2.467-5.5,5.5  c0,2.049,1.128,3.836,2.793,4.782C9.092,13.352,6,16.836,6,20.968V29c0,0.552,0.448,1,1,1h18c0.552,0,1-0.448,1-1v-8.032  C26,16.836,22.908,13.352,18.707,12.282z M16,4c1.93,0,3.5,1.57,3.5,3.5S17.93,11,16,11s-3.5-1.57-3.5-3.5S14.07,4,16,4z M24,28H8  v-7.032c0-3.877,3.589-7.031,8-7.031s8,3.154,8,7.031V28z"/></svg>