<?xml version="1.0" standalone="no"?><svg xmlns="http://www.w3.org/2000/svg" viewBox="0 0 1440 320"><path fill="#0099ff" fill-opacity="1" d="M0,192L26.7,181.3C53.3,171,107,149,160,165.3C213.3,181,267,235,320,245.3C373.3,256,427,224,480,176C533.3,128,587,64,640,69.3C693.3,75,747,149,800,170.7C853.3,192,907,160,960,122.7C1013.3,85,1067,43,1120,48C1173.3,53,1227,107,1280,144C1333.3,181,1387,203,1413,213.3L1440,224L1440,0L1413.3,0C1386.7,0,1333,0,1280,0C1226.7,0,1173,0,1120,0C1066.7,0,1013,0,960,0C906.7,0,853,0,800,0C746.7,0,693,0,640,0C586.7,0,533,0,480,0C426.7,0,373,0,320,0C266.7,0,213,0,160,0C106.7,0,53,0,27,0L0,0Z"></path></svg>